<svg xmlns="http://www.w3.org/2000/svg" width="47" height="18" viewBox="0 0 47 18" fill="none"><g opacity="0.8" clip-path="url(#clip0_9043_47289)"><g opacity="0.9"><path fill-rule="evenodd" clip-rule="evenodd" d="M37.9279 17.3139V9.32872H33.2499V17.3139H37.9279ZM37.9279 8.66881H33.2499V0.683594H37.9279V8.66881ZM43.9425 9.33437C44.5578 10.2066 44.9423 11.2555 44.9423 12.3222C44.939 13.645 44.4101 14.9127 43.4708 15.848C42.5322 16.7834 41.2603 17.3105 39.9326 17.314H38.5964V9.32872L43.9425 9.33437ZM38.5964 8.66881L43.3451 8.68059C42.8894 8.25737 42.3579 7.9235 41.7778 7.69652C42.3539 7.36398 42.8336 6.88738 43.1688 6.31377C43.5034 5.74015 43.683 5.08938 43.6884 4.42571C43.6884 2.38095 41.9854 0.683594 39.9326 0.683594H38.5964V8.66881ZM24.899 17.3139H20.2323V9.32872H24.899V17.3139ZM24.899 8.66881H20.2323V0.683594H24.899V8.66881ZM25.5669 17.3139V9.32872L30.9134 9.33457C31.5282 10.2068 31.9128 11.2557 31.9128 12.3224C31.9093 13.6452 31.3805 14.9127 30.4418 15.848C29.5033 16.7834 28.2312 17.3105 26.9037 17.3142L25.5669 17.3139ZM25.5669 8.66881V0.683594H26.9037C28.9558 0.683594 30.6649 2.38067 30.6649 4.42571C30.6649 5.77537 29.9078 7.02457 28.7485 7.69652C29.3284 7.9235 29.8602 8.25737 30.316 8.68059L25.5669 8.66881ZM10.3792 8.66881H5.39965L8.20304 0.683802H10.3795L10.3792 8.66881ZM16.0213 8.66881L13.2125 0.683594H11.0478V8.66855L16.0213 8.66881ZM19.0612 17.3139H14.8857L13.7206 13.9903H11.0478V9.32872H16.2584L19.0612 17.3139ZM2.35938 17.3139H6.53539L7.70638 13.9903H10.3799V9.32872H5.16908L2.35938 17.3139Z" fill="#F8F8F8"/></g></g><defs><clipPath id="clip0_9043_47289"><rect width="45.9005" height="16.6306" fill="white" transform="translate(0.460938 0.68457)"/></clipPath></defs></svg>