<svg xmlns="http://www.w3.org/2000/svg" width="180" height="30" viewBox="0 0 180 30" fill="none">
<path d="M9.83362 28.7208H0C1.24085 27.6293 1.56638 23.3693 2.10638 15.868L2.22638 14.1127C2.51234 9.85783 2.74213 6.57698 2.7 4.28422C2.66043 2.31315 2.43957 1.04677 1.89574 0.614004H12.8911C15.517 0.614004 20.7638 0.751877 20.7638 6.21571C20.7638 9.85783 17.3809 12.1161 14.2762 12.9191C18.6587 13.3532 21.9306 15.4672 21.9306 19.98C21.9306 24.8617 17.34 28.7208 9.83362 28.7208ZM9.40085 15.1417H7.40553L7.10681 19.288C6.96511 21.1059 6.88723 22.6353 6.85404 24.4646C6.85404 24.7187 7.65064 25.2612 9.54128 25.2612C13.4732 25.2612 16.0762 23.3029 16.0762 20.0591C16.0762 16.4489 13.117 15.1417 9.40085 15.1417ZM10.3072 3.99571C9.76213 3.99571 9.03574 3.99571 8.33745 4.0672C8.05149 6.02422 7.87021 7.92507 7.7234 10.0021C7.7234 10.0021 7.61745 11.788 7.61745 11.7127H8.33745C11.9119 11.7127 15.1953 10.4693 15.1953 7.19741C15.1953 5.29783 13.6264 3.99571 10.3072 3.99571ZM44.9923 28.9915C42.586 28.9915 42.4008 28.9136 40.4745 22.2868L39.7813 19.8319C38.6183 20.3872 36.5464 20.6425 33.2234 20.6425H29.8749L29.2953 21.8783C28.7043 23.1829 27.2911 25.8829 27.3243 27.4493C27.3243 27.8144 27.3626 28.177 27.5055 28.7221H20.7638C22.7043 26.7995 25.1336 22.3161 28.5179 15.0753L30.4889 10.8778C32.2736 7.08507 34.1719 2.79188 34.1719 2.17273C34.1719 1.61869 34.0264 1.11315 33.8055 0.615281H39.9281C39.9281 0.615281 41.5251 6.68677 42.9523 11.7536L44.1574 16.1872C46.237 23.6693 47.5481 27.3025 49.2868 28.7234C47.7255 28.9136 45.7532 28.9915 44.9923 28.9915ZM36.1404 7.19741L31.5843 16.9953H38.9783L36.1404 7.19741ZM71.6221 29.931C69.5426 29.931 69.0396 29.5978 68.3451 28.6468L60.466 17.7306C59.8532 16.8817 59.377 16.1859 58.3979 16.1859H58.2179L58.0711 18.3012C57.8847 21.1902 57.78 23.4766 57.78 25.1949C57.8081 27.0829 58.0302 28.2497 58.5447 28.7208H50.9311C52.02 27.7468 52.4298 24.4646 53.0528 15.868L53.1511 14.0846C53.4421 9.85783 53.6591 6.57826 53.6311 4.28422C53.5991 2.27741 53.377 1.04549 52.8268 0.612728C57.1634 0.612728 63.2055 0.612728 63.2055 0.612728C66.5962 0.612728 71.2557 1.18592 71.2557 6.68422C71.2557 11.2059 68.2315 13.6761 64.4885 14.8417C64.8485 15.1749 65.4983 16.0059 65.9004 16.5242L71.6234 24.1034C75.1915 28.8 75.4826 29.0144 76.754 29.6732C75.1545 29.8583 73.0072 29.931 71.6221 29.931ZM61.4579 4.02634C60.7621 4.02634 59.9311 4.02634 59.2685 4.10039C59.0528 5.29656 58.8689 7.37486 58.6174 10.7285L58.463 12.6957C58.8332 12.7634 59.303 12.8042 59.7421 12.8042C63.2426 12.8042 65.6426 10.6915 65.6426 7.49103C65.6438 5.29783 64.1157 4.02634 61.4579 4.02634ZM86.5889 29.2659C79.3443 29.2659 75.1545 23.3029 75.1545 16.5995C75.1545 7.26507 80.2162 0.0535786 89.8711 0.0535786C92.8877 0.0535786 94.3174 0.614004 96.7609 0.614004L96.0281 7.78209C94.643 5.26464 92.3898 3.54762 89.354 3.54762C83.3502 3.54762 80.9055 10.0417 80.9055 15.6089C80.9055 21.6651 84.2974 24.974 88.8128 24.974C91.2574 24.974 93.4021 24.3191 97.0085 21.7966C95.5506 26.4727 92.1651 29.2659 86.5889 29.2659ZM136.166 28.9915C133.773 28.9915 133.588 28.9136 131.649 22.2868L130.965 19.8319C129.79 20.3872 127.723 20.6425 124.411 20.6425H121.057L120.479 21.8783C119.636 23.7357 118.503 25.92 118.503 27.4493C118.503 27.8144 118.546 28.214 118.688 28.7221H98.7957C99.9268 27.4493 100.287 23.3361 100.833 15.8693L100.956 14.0859C101.237 9.82209 101.455 6.54252 101.422 4.23954C101.383 2.35911 101.2 1.14507 100.685 0.615281H108.382C107.291 1.44762 106.886 5.95656 106.379 13.4259L106.226 15.2144C106.051 17.9808 105.682 20.8378 105.682 23.5889C105.682 24.8629 106.194 25.1617 107.506 25.1617C112.169 25.1617 113.343 25.0544 115.445 23.6272C116.765 21.2297 118.251 18.1953 119.71 15.0766L121.679 10.8791C123.537 6.94081 125.355 2.93486 125.355 2.174C125.355 1.61996 125.215 1.11443 124.993 0.616557H131.115C131.115 0.616557 133.589 9.78507 134.136 11.7549L135.334 16.1885C137.409 23.6706 138.717 27.3038 140.471 28.7246C139.015 28.9136 136.934 28.9915 136.166 28.9915ZM127.323 7.19741L122.806 16.9953H130.16L127.323 7.19741ZM153.807 13.574C153.149 14.6706 152.313 16.1566 151.811 17.2544C151.363 19.3238 151.148 22.0953 151.148 25.1591C151.148 26.4344 151.363 28.1451 151.946 28.7208H144.331C145.684 27.448 146.229 19.6212 146.154 17.1421C145.132 13.5995 143.751 10.2229 141.633 6.10209C140.299 3.51954 138.717 1.07741 137.741 0.612728C139.453 0.455706 141.633 0.353579 142.695 0.353579C144.596 0.353579 145.095 0.612727 146.26 3.14805C148.084 7.26507 149.44 10.3685 150.234 12.6702C152.165 9.63571 153.518 7.55741 155.272 4.72592C155.705 4.02634 156.069 3.14805 156.069 2.31315C156.069 1.66209 155.955 0.928047 155.668 0.614004H163.201C161.747 0.928047 155.191 11.2468 153.807 13.574ZM179.269 7.26507C178.098 5.15996 175.589 3.54762 172.854 3.54762C170.459 3.54762 168.342 4.53826 168.342 7.08251C168.342 9.23613 170.999 10.6927 173.765 12.48C176.792 14.3732 179.922 16.7068 179.922 20.7459C179.922 26.031 174.79 29.2646 168.85 29.2646C166.408 29.2646 163.854 28.8012 160.985 27.7136L161.455 20.6706C162.844 23.4753 165.429 25.7055 169.251 25.7055C172.195 25.7055 174.388 24.2808 174.388 21.7953C174.388 19.6927 172.597 18.3829 170.417 17.0642C165.834 14.2966 162.911 12.0842 162.911 8.06166C162.911 2.05911 167.94 0.0510254 173.145 0.0510254C176.173 0.0510254 178.066 0.611451 180 0.611451L179.269 7.26507Z" fill="white"/>
</svg>