<svg xmlns="http://www.w3.org/2000/svg" width="170" height="41" viewBox="0 0 170 41" fill="none">
<g clip-path="url(#clip0_1464_4244)">
<path d="M117.514 1.48477V39.0518H123.148V1.48477H117.514ZM57.3221 0.843041C46.3463 0.842992 37.8303 8.83163 37.8303 20.2683C37.8303 32.22 46.3463 39.6938 57.3221 39.6936C68.2979 39.6934 76.8314 32.22 76.8139 20.2683C76.798 9.43249 68.2979 0.84309 57.3221 0.843041ZM71.1901 20.2683C71.1901 28.7349 64.9812 34.3457 57.3221 34.3457C49.663 34.3457 43.4541 28.7349 43.4541 20.2683C43.4541 11.9553 49.663 6.19096 57.3221 6.19096C64.9812 6.19096 71.1901 11.9553 71.1901 20.2683ZM0 0.268314V39.0518H5.74992V13.4214L35.6298 40.2683V32.2274L0 0.268314ZM81.0513 20.2683L101.961 39.0519H110.345L89.4038 20.2683L110.345 1.48475H101.961L81.0513 20.2683ZM170 39.0518H163.802L159.27 30.7327H138.742L134.209 39.0518H128.011L135.517 25.1859H156.322L145.948 5.9162L149.006 0.268311L170 39.0518Z" fill="white"/>
</g>
<defs>
<clipPath id="clip0_1464_4244">
<rect width="170" height="40" fill="white" transform="translate(0 0.268311)"/>
</clipPath>
</defs>
</svg>