<svg xmlns="http://www.w3.org/2000/svg" width="171" height="40" viewBox="0 0 171 40" fill="none">
<path d="M1.43703 19.9408C6.7037 13.4889 11.9185 6.98522 17.1704 0.518555C17.1778 13.5704 17.1778 26.6223 17.1704 39.6741C11.7037 34.2741 6.08888 29.0074 0.703698 23.5186C-0.466672 22.4371 0.599994 20.8593 1.43703 19.9408Z" fill="white"/>
<path d="M26.2815 13.052C30.9111 13.0594 35.5481 13.052 40.1852 13.0594C38.3704 15.8446 36.3185 18.4816 34.6074 21.3409C33.8222 22.452 34.8444 23.5853 35.5185 24.4372C39.0815 28.6964 42.6148 32.9853 46.1482 37.2668C41.0963 37.2742 36.0444 37.2668 30.9926 37.2668C27.4074 32.9039 23.8148 28.5335 20.2296 24.1705C19.4815 23.3705 18.8148 22.0964 19.6519 21.1113C21.763 18.3483 24.1037 15.7631 26.2815 13.052Z" fill="white"/>
<path d="M57.1259 13.052C58.4222 13.0594 59.7185 13.0594 61.0148 13.052C61.0222 21.1409 61.0222 29.2298 61.0148 37.3187C59.7185 37.3113 58.4222 37.3113 57.1259 37.3187C57.1259 29.2298 57.1259 21.1409 57.1259 13.052Z" fill="white"/>
<path d="M134.304 37.3187C134.304 29.2298 134.304 21.1409 134.304 13.052C135.6 13.0594 136.896 13.0594 138.193 13.052C138.193 21.1409 138.193 29.2298 138.193 37.3187C136.896 37.3113 135.6 37.3113 134.304 37.3187Z" fill="white"/>
<path d="M68.8963 20.0371C70.4148 20.0445 71.9259 20.0445 73.4444 20.0445C71.0518 22.926 68.6667 25.8001 66.2741 28.6667C68.6667 31.5482 71.0667 34.4297 73.4593 37.3112C71.9407 37.3112 70.4222 37.3112 68.9037 37.3186C66.5111 34.4297 64.1037 31.5556 61.7111 28.6667C64.1111 25.8001 66.4963 22.9112 68.8963 20.0371Z" fill="white"/>
<path d="M74.7704 20.0371C75.9852 20.0519 77.2 20.0593 78.4148 20.0519C78.4519 20.763 78.5185 22.1778 78.5481 22.8889C80.8222 19.0519 87.7556 18.3037 89.3333 23.0667C90.3259 27.7334 89.5926 32.5778 89.8148 37.3185C88.5185 37.3111 87.2222 37.3111 85.9259 37.3185C85.7037 33.126 86.4 28.8222 85.5333 24.7037C84.0296 21.5852 79.4889 23.4741 78.8741 26.3334C78.3481 29.9556 78.8074 33.6593 78.6519 37.3185C77.363 37.3111 76.0667 37.3111 74.7704 37.3185C74.7704 31.5556 74.7704 25.8 74.7704 20.0371Z" fill="white"/>
<path d="M97.2222 20.0668C100.919 18.9853 105.526 20.3038 107.259 23.9483C108.904 27.4149 108.719 31.9853 106.193 34.9927C102.748 38.9112 95.4222 38.4964 92.7333 33.9112C89.9704 29.2446 91.4444 21.5631 97.2222 20.0668ZM97.9704 23.2075C93.9185 25.6668 94.5185 34.4964 99.9704 34.5853C103.956 34.4742 104.889 29.4668 104.007 26.3631C103.585 23.652 100.459 21.852 97.9704 23.2075Z" fill="white"/>
<path d="M108.007 20.0445C109.333 20.0519 110.659 20.0519 111.985 20.0371C113.052 24.3482 114.111 28.6593 115.178 32.9704C116.348 28.6593 117.504 24.3482 118.659 20.0371C119.963 20.0519 121.259 20.0519 122.563 20.0445C123.711 24.3556 124.874 28.6593 126.037 32.963C127.096 28.6593 128.156 24.3556 129.2 20.0445C130.541 20.0593 131.889 20.0519 133.23 20.0371C131.593 25.8001 129.948 31.5556 128.296 37.3186C126.985 37.3112 125.674 37.3112 124.363 37.3186C123.119 33.0519 121.874 28.7927 120.622 24.5334C119.378 28.7927 118.148 33.0593 116.911 37.3186C115.593 37.3112 114.281 37.3112 112.97 37.3186C111.319 31.5556 109.659 25.8001 108.007 20.0445Z" fill="white"/>
<path d="M141.007 24.0075C143.193 19.1927 150.741 18.1186 154.022 22.3408C155.689 24.3705 155.77 27.0816 155.896 29.5779C151.881 29.5927 147.867 29.5779 143.852 29.5927C144.17 31.2149 144.57 33.0816 146.17 33.926C148.711 35.3779 151.748 34.2668 154.022 32.8371C154.496 33.6668 154.978 34.4964 155.452 35.326C152.126 37.7556 147.289 38.5779 143.644 36.3779C139.681 33.7779 139.141 28.0445 141.007 24.0075ZM143.756 26.8668C146.57 26.9112 149.385 26.9112 152.2 26.8742C151.978 24.7186 150.637 22.2816 148.126 22.5112C145.615 22.363 144.244 24.7482 143.756 26.8668Z" fill="white"/>
<path d="M159.326 20.889C162.659 18.7779 167.059 19.6446 170.111 21.8668C169.6 22.7335 169.081 23.6001 168.57 24.4742C166.689 23.3705 164.548 22.1335 162.289 22.8594C160.978 23.0594 160.437 24.9779 161.622 25.6964C163.904 27.0372 166.793 27.1409 168.837 28.9038C171.163 31.0075 170.356 35.0668 167.748 36.5705C164.067 38.7186 159.296 37.5186 156.252 34.7779C156.904 33.9483 157.556 33.1261 158.207 32.2964C160.259 34.1335 165.222 36.2668 166.415 32.6149C165.311 30.1186 161.881 30.4372 159.8 29.089C156.519 27.7261 156.363 22.6668 159.326 20.889Z" fill="white"/>
</svg>