<svg xmlns="http://www.w3.org/2000/svg" width="180" height="31" viewBox="0 0 180 31" fill="none">
<g clip-path="url(#clip0_1464_4226)">
<path d="M137.341 27.1738C136.416 27.1994 135.497 27.0248 134.646 26.6619C133.979 26.3692 133.38 25.94 132.889 25.4021C132.397 24.8642 132.024 24.2293 131.793 23.5384C131.578 22.9027 131.469 22.2357 131.471 21.5645V13.3953H129.745V8.95809H131.471V3.54199H137.238V8.95809H140.233V13.3953H137.238V21.1491C137.238 21.9241 137.625 22.3116 138.4 22.3116H140.233V27.1738H137.341Z" fill="white"/>
<path d="M156.526 9.69871C155.105 8.5717 153.032 8.00819 150.308 8.00819C149.59 8.00304 148.872 8.05039 148.16 8.14987C147.56 8.23436 146.969 8.38113 146.399 8.5878C145.862 8.78474 145.353 9.05104 144.886 9.37993C144.627 9.56063 144.379 9.7552 144.142 9.96275L147.004 14.1874L147.027 14.21C147.419 13.796 147.877 13.45 148.382 13.186C148.897 12.9563 149.458 12.8462 150.021 12.864C151.026 12.864 151.754 13.04 152.205 13.3921C152.655 13.7441 152.879 14.3549 152.874 15.2243V15.717H149.139C148.129 15.6926 147.122 15.8452 146.164 16.1678C145.406 16.4291 144.711 16.8446 144.122 17.3882C143.607 17.8796 143.213 18.4835 142.97 19.1527C142.726 19.8124 142.602 20.5103 142.602 21.2136C142.594 22.0628 142.737 22.9067 143.024 23.7059C143.289 24.4391 143.71 25.1061 144.258 25.6604C144.807 26.2087 145.465 26.6354 146.19 26.913C147.014 27.2167 147.887 27.3662 148.766 27.3542C149.597 27.3865 150.425 27.2428 151.197 26.9323C151.87 26.6055 152.48 26.163 153 25.625V27.1738H158.638V14.8765C158.651 12.5517 157.947 10.8257 156.526 9.69871ZM152.878 20.0576C152.888 20.4519 152.847 20.846 152.755 21.2297C152.673 21.5225 152.507 21.7852 152.279 21.9864C152.012 22.2213 151.701 22.4008 151.364 22.5145C150.986 22.6177 150.594 22.6655 150.202 22.6561C149.643 22.7024 149.085 22.5471 148.63 22.2182C148.471 22.0792 148.344 21.908 148.256 21.716C148.168 21.5241 148.122 21.3156 148.12 21.1045C148.119 20.8933 148.162 20.6842 148.247 20.491C148.332 20.2978 148.457 20.1248 148.614 19.9835C149.053 19.6678 149.589 19.5182 150.128 19.5617H152.874L152.878 20.0576Z" fill="white"/>
<path d="M173.174 27.1738L170.275 22.3824L167.458 27.1738H160.525L167.12 17.4815L160.776 8.21423H167.716L170.292 12.7963L172.916 8.21745H179.855L173.512 17.4847L180.1 27.1738H173.174Z" fill="white"/>
<path d="M54.6118 27.1738C53.687 27.1994 52.7676 27.0248 51.9166 26.6619C51.2494 26.3692 50.6509 25.9401 50.1596 25.4021C49.6682 24.8642 49.2949 24.2293 49.0637 23.5384C48.8484 22.9027 48.7396 22.2358 48.7417 21.5645V2.08655H54.5217V21.1492C54.5217 21.9241 54.9091 22.3116 55.6841 22.3116H57.6934V27.1738H54.6118Z" fill="white"/>
<path d="M71.3141 27.1739V25.6218C70.7259 26.209 70.0157 26.6597 69.234 26.942C68.4904 27.2209 67.7033 27.3659 66.9091 27.3703C66.0858 27.3827 65.2676 27.2396 64.4973 26.9485C63.8043 26.6852 63.1738 26.2806 62.6458 25.7603C61.8973 25.0612 61.3549 24.1702 61.0776 23.1843C60.8537 22.2501 60.7456 21.2919 60.7556 20.3313V8.21753H66.5356V19.5617C66.5179 20.0145 66.6015 20.4656 66.7803 20.8819C66.9195 21.1911 67.1304 21.4626 67.3954 21.6741C67.6252 21.8547 67.8892 21.9872 68.1714 22.0637C68.6188 22.205 69.0989 22.205 69.5463 22.0637C69.8286 21.9872 70.0925 21.8547 70.3224 21.6741C70.5872 21.4624 70.798 21.1909 70.9374 20.8819C71.116 20.4655 71.1996 20.0145 71.1821 19.5617V8.21753H76.9589V27.1739H71.3141Z" fill="white"/>
<path d="M102.178 27.1739V15.8264C102.196 15.3715 102.113 14.9183 101.933 14.4998C101.792 14.193 101.58 13.9238 101.315 13.7141C101.085 13.5349 100.821 13.4035 100.539 13.3277C100.092 13.1864 99.6116 13.1864 99.1642 13.3277C98.8821 13.4044 98.6182 13.5369 98.3882 13.7173C98.1259 13.9236 97.9154 14.1882 97.7732 14.4901C97.5945 14.9066 97.5109 15.3576 97.5284 15.8103V27.1674H91.7485V15.8264C91.7657 15.3713 91.681 14.918 91.5005 14.4998C91.3599 14.1906 91.148 13.9192 90.8823 13.7077C90.6521 13.5322 90.3894 13.4042 90.1095 13.3309C89.662 13.1896 89.182 13.1896 88.7345 13.3309C88.4524 13.4075 88.1885 13.54 87.9585 13.7205C87.6965 13.9259 87.486 14.1894 87.3435 14.4901C87.1647 14.9065 87.0811 15.3575 87.0987 15.8103V27.1674H81.3188V8.2175H86.9571V9.76634C87.5452 9.17905 88.2554 8.72833 89.0372 8.44612C89.78 8.16265 90.5671 8.01329 91.3621 8.00498C92.236 7.9911 93.1039 8.1509 93.9156 8.4751C94.713 8.81769 95.4189 9.34269 95.9764 10.0078C96.6961 9.34402 97.5324 8.81893 98.4429 8.459C99.3741 8.1356 100.355 7.98077 101.341 8.00176C102.21 7.99783 103.073 8.14044 103.894 8.42358C104.64 8.66619 105.321 9.07589 105.884 9.62144C106.637 10.3336 107.206 11.2174 107.543 12.1975C107.829 13.1212 107.971 14.0834 107.965 15.0504V27.1674L102.178 27.1739Z" fill="white"/>
<path d="M124.815 9.69871C123.394 8.5717 121.321 8.00819 118.597 8.00819C117.879 8.00304 117.161 8.05039 116.449 8.14987C115.849 8.23436 115.258 8.38113 114.688 8.5878C114.151 8.78474 113.642 9.05104 113.175 9.37993C112.916 9.56063 112.668 9.7552 112.431 9.96275L115.303 14.1874L115.326 14.21C115.718 13.796 116.176 13.45 116.681 13.186C117.196 12.9563 117.757 12.8462 118.32 12.864C119.325 12.864 120.053 13.04 120.503 13.3921C120.954 13.7441 121.177 14.3549 121.173 15.2243V15.717H117.441C116.429 15.6943 115.421 15.8491 114.463 16.1742C113.704 16.4332 113.008 16.8465 112.418 17.3882C111.9 17.8777 111.502 18.4805 111.255 19.1495C111.012 19.8092 110.887 20.507 110.888 21.2103C110.879 22.057 111.019 22.8987 111.304 23.6962C111.565 24.4286 111.983 25.0955 112.527 25.6508C113.084 26.2009 113.752 26.6267 114.485 26.9001C115.31 27.2038 116.183 27.3533 117.061 27.3413C117.892 27.3736 118.721 27.2299 119.492 26.9195C120.162 26.5977 120.77 26.1619 121.289 25.6314V27.1803H126.927V14.8765C126.94 12.5517 126.236 10.8257 124.815 9.69871ZM121.167 20.0576C121.177 20.4519 121.136 20.846 121.044 21.2297C120.962 21.5225 120.796 21.7852 120.568 21.9864C120.301 22.2213 119.99 22.4008 119.653 22.5145C119.275 22.6177 118.883 22.6655 118.491 22.6561C117.933 22.7016 117.377 22.5463 116.923 22.2182C116.764 22.0792 116.636 21.908 116.548 21.716C116.46 21.5241 116.414 21.3156 116.412 21.1045C116.411 20.8933 116.454 20.6842 116.539 20.491C116.625 20.2978 116.75 20.1248 116.907 19.9835C117.345 19.6678 117.881 19.5182 118.42 19.5617H121.167V20.0576Z" fill="white"/>
<path d="M29.6469 22.5402C27.6944 22.9546 25.7016 23.1479 23.7059 23.1166C19.4909 23.1166 16.3449 22.244 14.3002 20.4729C13.6896 19.9518 13.1485 19.3544 12.6902 18.6955H12.4648C8.48801 18.6762 5.47406 17.9066 3.43578 16.3191C2.99507 17.0346 2.66912 17.8147 2.46977 18.6311C2.27189 19.4447 2.17456 20.2796 2.17996 21.1169C2.14782 22.8442 2.65303 24.5387 3.62576 25.9663C4.0837 26.6275 4.62482 27.2271 5.23578 27.7502C7.2805 29.5212 10.4233 30.3939 14.6415 30.3939C16.6372 30.4252 18.63 30.2319 20.5825 29.8175C20.9463 29.7402 21.2716 29.6468 21.5968 29.5502C23.6118 28.8652 25.4719 27.7896 27.0708 26.3849C28.2542 25.3346 29.1582 24.0069 29.7016 22.5209H29.6533L29.6469 22.5402Z" fill="white"/>
<path d="M5.12952 14.3775C6.60108 13.0895 8.69732 12.3038 11.3989 11.9914C11.4376 11.7768 11.4826 11.5621 11.5342 11.3474C11.9475 9.67682 12.8853 8.18265 14.21 7.08409C16.142 5.39036 19.1914 4.54671 23.2776 4.54671H28.4683C28.4683 4.07658 28.4909 3.5807 28.4909 3.06871V0.109497H12.0429C7.95134 0.109497 4.9288 0.952073 2.97532 2.63722C1.02183 4.32238 0.0300558 6.57318 2.16416e-06 9.38964C-0.0214124 10.658 0.24404 11.9149 0.776531 13.0663C1.30902 14.2177 2.09479 15.2339 3.07514 16.039L3.12988 16.0873L3.17496 16.1227L3.2136 16.1485C3.28766 16.2097 3.36494 16.2676 3.439 16.3256C3.89413 15.5896 4.46497 14.9318 5.12952 14.3775Z" fill="white"/>
<path d="M12.5388 18.6762H12.6934C11.7206 17.2486 11.2154 15.5541 11.2476 13.8269C11.2439 13.2117 11.2956 12.5974 11.4021 11.9915C8.70053 12.3135 6.60429 13.0959 5.13273 14.3775C4.46836 14.9267 3.8965 15.579 3.439 16.3095C5.47406 17.9067 8.48801 18.6762 12.468 18.6762H12.5388Z" fill="white"/>
<path d="M28.4683 4.54021C28.4577 6.42351 28.2177 8.29851 27.7535 10.1237C27.6549 10.4818 27.5345 10.8334 27.3928 11.1767C27.2995 11.3989 27.1964 11.6178 27.0902 11.8207H30.6322V14.7735C30.6322 17.7263 30.3971 20.0737 29.9077 21.835C29.8433 22.0604 29.7714 22.2826 29.692 22.5016C30.0365 22.4275 30.336 22.3373 30.658 22.244C32.673 21.5589 34.5331 20.4833 36.132 19.0787C37.4946 17.8678 38.4823 16.2924 38.9785 14.5384C39.468 12.7771 39.703 10.4297 39.703 7.47688V4.53699L28.4683 4.54021Z" fill="white"/>
<path d="M30.6451 14.7864V11.8336H27.103C26.563 12.9072 25.8244 13.8687 24.9263 14.6672C23.3281 16.0737 21.4678 17.1504 19.4522 17.8358C17.6361 18.38 15.3853 18.6762 12.6934 18.6762C13.1518 19.3352 13.6929 19.9325 14.3034 20.4537C16.3481 22.2247 19.4909 23.0973 23.7091 23.0973C25.703 23.1347 27.6948 22.9479 29.6469 22.5402H29.6952C29.7746 22.3256 29.8465 22.1034 29.9109 21.8737C30.41 20.0898 30.6451 17.7424 30.6451 14.7864Z" fill="white"/>
<path d="M28.4683 4.54028H23.2776C19.1946 4.54028 16.1549 5.38393 14.21 7.07767C12.8888 8.17548 11.9534 9.66713 11.5406 11.3346C11.4891 11.5492 11.444 11.7639 11.4054 11.9786C11.2988 12.5845 11.2471 13.1988 11.2508 13.814C11.2141 15.5449 11.7171 17.2443 12.6902 18.6762C15.3821 18.6762 17.6329 18.3768 19.4297 17.8326C21.4453 17.1473 23.3056 16.0705 24.9038 14.6641C25.8018 13.8655 26.5404 12.904 27.0805 11.8304C27.19 11.6147 27.293 11.399 27.3832 11.1864C27.5248 10.8432 27.6453 10.4915 27.7438 10.1335C28.2121 8.30552 28.4554 6.42722 28.4683 4.54028Z" fill="white"/>
<path d="M11.4376 11.7822C11.4376 11.853 11.4086 11.9206 11.3989 11.9915C11.2924 12.5974 11.2406 13.2117 11.2444 13.8269C11.2122 15.5541 11.7174 17.2486 12.6902 18.6762C15.3821 18.6762 17.6329 18.3768 19.4297 17.8326C21.4453 17.1473 23.3056 16.0705 24.9038 14.6641C25.8018 13.8655 26.5404 12.904 27.0805 11.8305L27.1063 11.7789L11.4376 11.7822Z" fill="white"/>
</g>
<defs>
<clipPath id="clip0_1464_4226">
<rect width="180" height="30.2683" fill="white"/>
</clipPath>
</defs>
</svg>