<svg xmlns="http://www.w3.org/2000/svg" width="180" height="36" viewBox="0 0 180 36" fill="none">
<path d="M3.47826 14.1813V26.3552H6.95652H10.3478L10.6087 20.877L10.8696 15.4857H13.913H16.9565L17.2174 20.877L17.4783 26.3552H20.8696H24.3478V14.1813V2.0074H20.8696H17.3913V7.22479V12.4422H13.913H10.4348V7.22479V2.0074H6.95652H3.47826V14.1813Z" fill="white"/>
<path d="M160 14.1813V26.3552H163.478H166.957V14.1813V2.0074H163.478H160V14.1813Z" fill="white"/>
<path d="M169.565 14.1813V26.3552H172.609H175.652V14.1813V2.0074H172.609H169.565V14.1813Z" fill="white"/>
<path d="M31.2174 10.2683C26.4348 12.877 25.7391 20.6161 30 24.6161C32.4348 26.877 38.4348 27.8335 41.913 26.4422C45.2174 25.2248 47.3913 21.4857 47.3043 17.3118C47.1304 12.2683 43.3043 8.96396 37.5652 8.96396C35.3043 9.05091 32.4348 9.57265 31.2174 10.2683ZM39.4783 12.0944C40.5217 14.964 40 23.4857 38.6956 24.6161C36.3478 26.6161 34.7826 24.1814 34.7826 18.5292C34.7826 12.3553 35.3913 10.7031 37.3913 10.7031C38.2609 10.7031 39.2174 11.3118 39.4783 12.0944Z" fill="white"/>
<path d="M50.2609 17.6596L50 26.3552H53.3043H56.5217V19.8335C56.5217 14.1813 56.7826 13.2248 58.3478 12.4422C61.4783 10.703 62.6087 12.703 62.6087 19.9204V26.3552H65.6522H68.6957V18.5291C68.6957 11.7465 68.5217 10.6161 67.0435 9.83348C64.7826 8.70305 61.2174 8.70305 58.8696 9.92044C57.4783 10.703 56.9565 10.703 56.6957 9.92044C56.5217 9.3987 55.0435 8.96392 53.4783 8.96392H50.5217L50.2609 17.6596Z" fill="white"/>
<path d="M74.6957 11.3987C72.5217 13.3117 71.913 14.6161 71.8261 17.3117C71.7391 21.3987 73.913 25.2248 77.0435 26.3552C81.913 28.2682 89.4783 26.5291 90.6957 23.3117C91.4783 21.4856 89.8261 21.6595 87.2174 23.7465C83.1304 26.9639 79.1304 25.5726 79.1304 20.9639V18.5291H85.6522H92.1739L91.6522 16.0943C91.3913 14.79 90 12.703 88.6087 11.3117C84.9565 7.92041 78.6087 7.92041 74.6957 11.3987ZM84.1739 13.9204C84.4348 16.6161 84.2609 16.79 81.8261 16.79C79.4783 16.79 79.1304 16.5291 79.1304 14.3552C79.1304 11.3117 79.8261 10.5291 82.1739 10.8769C83.4783 11.0508 84 11.9204 84.1739 13.9204Z" fill="white"/>
<path d="M92.1739 9.65959C92.1739 10.0944 93.7391 14.2683 95.6522 18.9639C99.0435 27.3118 99.1304 27.5726 97.6522 29.7466L96.1739 32.0074L95.6522 29.8335C94.9565 26.79 91.0435 26.7031 90.6087 29.7466C90.2609 32.0944 91.6522 33.3118 94.8696 33.3118C98.087 33.3118 99.3913 31.4857 103.913 20.7031C106.174 15.3987 108.261 10.79 108.609 10.4422C109.043 10.0944 110.435 13.4857 111.739 18.0944L114.174 26.3552H117.391C120.609 26.3552 120.609 26.3552 121.652 21.4857C122.261 18.877 123.043 16.877 123.304 17.2248C123.652 17.4857 124.522 19.5726 125.304 21.8335C126.522 25.5726 126.957 25.9205 129.652 26.1813L132.696 26.4422L134.609 19.0509C135.652 14.9639 136.783 10.9639 137.13 10.1813C137.478 9.13785 137.217 8.87698 136.087 9.0509C135.13 9.31177 134 11.0509 133.043 14.1813C131.652 18.7031 131.478 18.877 130.696 16.79C130.174 15.5726 129.478 13.3118 129.13 11.7465C128.609 9.0509 128.348 8.87698 125.391 9.13785C122.435 9.39872 122.174 9.65959 120.783 14.1813C119.304 19.1379 119.217 19.1379 117.13 12.877C115.913 9.39872 115.826 9.39872 111.13 9.13785L106.348 8.87698L104.87 12.877C104 15.0509 103.043 16.79 102.696 16.79C102.261 16.79 101.304 15.0509 100.522 12.877C99.0435 9.13785 98.7826 8.96394 95.5652 8.96394C93.7391 8.96394 92.1739 9.31177 92.1739 9.65959Z" fill="white"/>
<path d="M141.826 10.1814C139.13 11.6596 137.478 14.7901 137.391 18.3553C137.391 20.6162 138.174 22.0944 140.348 24.2683C142.87 26.7901 143.913 27.2249 147.304 27.2249C151.913 27.2249 156.522 25.2249 156.522 23.3118C156.522 21.4857 155.13 21.6596 153.043 23.7466C149.739 27.0509 143.913 24.964 144.522 20.7901C144.783 19.1379 145.391 18.964 151.13 18.7031C157.217 18.4422 157.391 18.3553 157.391 16.2683C157.391 14.964 156.348 12.964 154.87 11.4857C152.696 9.39877 151.652 8.96398 148.087 8.96398C145.826 9.05094 142.957 9.57268 141.826 10.1814ZM149.913 12.0944C151.13 15.3118 150.522 16.7901 147.913 16.7901C144.696 16.7901 144.087 15.8335 145.217 12.964C146.174 10.4422 149.043 9.92051 149.913 12.0944Z" fill="white"/>
</svg>