<svg xmlns="http://www.w3.org/2000/svg" width="180" height="37" viewBox="0 0 180 37" fill="none">
<g clip-path="url(#clip0_1479_34)">
<path d="M51.6088 26.2384H60.7689V28.2857H49.3295V7.83008H51.6088V26.2384Z" fill="white"/>
<path d="M67.9017 8.31586C68.2162 8.62091 68.3933 9.04059 68.3933 9.47922C68.3933 9.91786 68.2162 10.3375 67.9017 10.6426C67.5862 10.9533 67.158 11.122 66.7156 11.1115C66.2741 11.1182 65.8478 10.9495 65.5304 10.6426C65.2121 10.3385 65.0368 9.91407 65.0482 9.47449C65.0425 9.0387 65.2168 8.62091 65.5304 8.3187C66.1945 7.66786 67.2584 7.66786 67.9225 8.3187M67.8647 28.293H65.6119V13.6647H67.8647V28.293Z" fill="white"/>
<path d="M86.9429 13.6648L80.244 28.2344H79.4236L72.6935 13.6648H75.0932L79.8338 24.4032L84.547 13.6648H86.9429Z" fill="white"/>
<path d="M103.68 21.6142H92.6744C92.7597 22.8913 93.3414 24.085 94.2944 24.9395C95.2541 25.7855 96.4989 26.2364 97.7769 26.2014C99.3998 26.1853 100.944 25.5022 102.046 24.3114L103.334 25.8016C101.909 27.3799 99.8735 28.2676 97.7466 28.2382C95.7761 28.2913 93.8709 27.5353 92.4726 26.1464C91.0724 24.7889 90.3031 22.9083 90.3505 20.9577C90.306 19.0232 91.0459 17.1521 92.4006 15.7699C93.7175 14.3801 95.5591 13.6099 97.4728 13.6478C99.1658 13.5995 100.805 14.2409 102.015 15.4251C103.23 16.6121 103.89 18.2558 103.833 19.9535C103.838 20.5115 103.78 21.0685 103.663 21.6142M94.3768 16.758C93.509 17.5064 92.9302 18.5353 92.7426 19.6664H101.588C101.624 18.5571 101.18 17.4865 100.368 16.7305C99.5637 16.0077 98.5121 15.6231 97.4321 15.6534C96.318 15.6354 95.2361 16.0285 94.3939 16.758" fill="white"/>
<path d="M128.22 8.25049V27.9131H124.269V17.5849L119.412 23.6992H118.124L113.266 17.5849V27.9131H109.316V8.25049H110.604L118.77 18.7265L126.931 8.25049H128.22Z" fill="white"/>
<path d="M128.637 28.3339H123.852V18.7882L119.618 24.12H117.909L113.67 18.7882V28.3339H108.885V7.82715H110.796L118.755 18.0388L126.71 7.83378H128.619L128.637 28.3339ZM124.686 27.4926H127.799V8.67125H127.137L118.766 19.4097L110.4 8.67125H109.737V27.4926H112.847V16.3847L118.315 23.2825H119.2L124.669 16.3847L124.686 27.4926Z" fill="white"/>
<path d="M146.324 14.9152C147.782 16.324 148.606 18.2642 148.606 20.2915C148.606 22.3189 147.782 24.2591 146.324 25.6679C144.85 27.1116 142.857 27.9027 140.794 27.862C138.746 27.9084 136.767 27.123 135.309 25.6849C133.871 24.262 133.062 22.3227 133.062 20.3001C133.062 18.2774 133.871 16.3382 135.309 14.9152C138.399 12.0078 143.219 12.0078 146.311 14.9152M138.107 17.458C137.396 18.2339 137.017 19.2589 137.055 20.3124C137.014 21.3564 137.393 22.3729 138.107 23.1355C139.595 24.6087 141.991 24.6087 143.477 23.1355C144.196 22.3795 144.581 21.3678 144.547 20.3256C144.578 19.2769 144.195 18.2575 143.481 17.4892C142.773 16.7673 141.806 16.3609 140.796 16.3609C139.786 16.3609 138.818 16.7673 138.111 17.4892" fill="white"/>
<path d="M140.794 28.2827C138.637 28.3272 136.553 27.4992 135.014 25.9853C133.496 24.4837 132.64 22.4365 132.64 20.3001C132.64 18.1638 133.496 16.1166 135.014 14.615C138.268 11.5512 143.344 11.5512 146.598 14.615C148.139 16.1014 149.009 18.1515 149.009 20.2935C149.009 22.4346 148.139 24.4847 146.598 25.972C145.046 27.4859 142.955 28.3177 140.787 28.2827M140.818 13.1551C138.877 13.1125 137 13.8514 135.609 15.2061C134.252 16.5495 133.49 18.3798 133.49 20.2897C133.49 22.1996 134.252 24.0299 135.609 25.3742C136.993 26.7309 138.867 27.4708 140.804 27.4243C142.758 27.4594 144.645 26.711 146.043 25.3468C147.447 24.0328 148.23 22.1863 148.197 20.2641C148.242 18.3448 147.457 16.4983 146.043 15.1986C144.648 13.8495 142.772 13.1115 140.832 13.1485M140.832 24.6495C139.705 24.6827 138.617 24.2365 137.837 23.4227C137.048 22.5814 136.628 21.4607 136.668 20.3087C136.632 19.15 137.051 18.0227 137.834 17.1681C138.618 16.3581 139.697 15.9006 140.824 15.9006C141.952 15.9006 143.031 16.3581 143.815 17.1681C144.603 18.0141 145.028 19.1358 144.998 20.2916C145.032 21.4417 144.605 22.5577 143.812 23.3914C143.038 24.208 141.956 24.658 140.832 24.6325M140.832 16.7305C139.926 16.6935 139.051 17.0573 138.439 17.7252C137.798 18.4225 137.46 19.3452 137.499 20.2916C137.456 21.2276 137.795 22.1409 138.436 22.8239C139.757 24.1266 141.879 24.1266 143.2 22.8239C143.838 22.1485 144.176 21.2437 144.14 20.3153C144.172 19.3727 143.828 18.4547 143.183 17.7659C142.582 17.0923 141.714 16.7172 140.811 16.7409" fill="white"/>
<path d="M162.368 12.8889V16.4975H161.277C160.207 16.4416 159.154 16.7949 158.335 17.4856C157.608 18.1418 157.244 19.1169 157.244 20.411V27.9028H153.143V12.8889H156.902V14.7107C157.866 13.4071 159.407 12.6587 161.028 12.707C161.479 12.6995 161.928 12.761 162.361 12.8889" fill="white"/>
<path d="M157.678 28.3339H152.716V12.4541H157.343V13.6061C158.361 12.7147 159.678 12.2391 161.031 12.2732C161.526 12.2666 162.019 12.3348 162.494 12.475L162.798 12.5707V16.9324H161.273C160.312 16.8793 159.366 17.1919 158.624 17.8068C157.986 18.3847 157.674 19.2354 157.674 20.4111L157.678 28.3339ZM153.577 27.4661H156.803V20.4111C156.803 18.9967 157.221 17.9025 158.04 17.1645C158.94 16.4037 160.094 16.0115 161.27 16.0674H161.926V13.23C160.163 12.8975 158.36 13.572 157.247 14.9808L156.468 15.9888V13.3295H153.577V27.4661Z" fill="white"/>
<path d="M179.316 21.6311H169.135C169.349 22.4885 169.862 23.2407 170.584 23.7504C171.368 24.2686 172.294 24.5291 173.233 24.495C174.703 24.4846 176.126 23.9749 177.269 23.0493L178.91 25.7399C177.302 27.1458 175.236 27.916 173.099 27.9065C170.821 27.9065 168.928 27.1795 167.423 25.7256C165.942 24.3245 165.124 22.3634 165.17 20.3256C165.141 18.3078 165.931 16.3628 167.357 14.9361C168.785 13.5084 170.729 12.7192 172.747 12.7486C174.757 12.7486 176.395 13.3922 177.662 14.6793C178.922 15.9488 179.609 17.6768 179.566 19.4645C179.562 20.1949 179.474 20.9215 179.303 21.6311M170.416 16.7162C169.772 17.2751 169.321 18.0226 169.128 18.8525H175.742C175.759 18.0378 175.416 17.2562 174.805 16.7162C174.197 16.1894 173.415 15.9081 172.61 15.927C171.807 15.9147 171.027 16.1951 170.416 16.7162Z" fill="white"/>
<path d="M173.113 28.313C170.897 28.3774 168.747 27.5503 167.145 26.0165C165.581 24.5377 164.713 22.4677 164.753 20.3153C164.725 18.1856 165.557 16.1345 167.064 14.6282C168.57 13.1219 170.621 12.2892 172.751 12.3176C174.866 12.3176 176.62 13.0016 177.966 14.3687C179.305 15.7205 180.035 17.5594 179.99 19.4608C179.987 20.2234 179.895 20.9822 179.717 21.724L179.641 22.0452H169.73C169.957 22.5956 170.338 23.0702 170.827 23.4122C171.535 23.8802 172.37 24.119 173.219 24.0953C174.598 24.0782 175.931 23.597 177.002 22.7282L177.372 22.445L179.443 25.8422L179.169 26.0743C177.488 27.5371 175.334 28.3423 173.106 28.3404M172.764 13.1825C170.848 13.1267 168.997 13.8779 167.661 15.2535C166.31 16.5988 165.57 18.4376 165.611 20.3428C165.565 22.2555 166.333 24.0972 167.723 25.4112C169.172 26.7877 171.112 27.5267 173.11 27.4622C175.018 27.466 176.869 26.8161 178.356 25.6196L177.143 23.6311C176 24.4496 174.631 24.8949 173.226 24.9053C172.201 24.9384 171.192 24.6514 170.338 24.0858C169.536 23.5193 168.964 22.6856 168.724 21.7335L168.578 21.2039H178.975C179.093 20.6298 179.154 20.0443 179.156 19.4579C179.199 17.7763 178.556 16.1497 177.375 14.9532C176.179 13.7358 174.668 13.1484 172.757 13.1484M176.175 19.2628H168.591L168.728 18.736C168.943 17.8228 169.441 16.9995 170.15 16.3847C170.838 15.8001 171.714 15.4837 172.617 15.496C173.522 15.478 174.401 15.7954 175.085 16.3884C175.786 17.0052 176.181 17.8985 176.165 18.8317L176.175 19.2628ZM169.712 18.4253H175.293C175.222 17.8815 174.953 17.3832 174.538 17.0241C174.008 16.5637 173.323 16.3193 172.621 16.3401C171.916 16.324 171.23 16.5675 170.693 17.0241C170.255 17.3993 169.918 17.8796 169.712 18.4187" fill="white"/>
<path d="M14.7922 35.4838C14.7922 35.4838 17.0621 25.5724 25.6443 23.4294C25.6443 23.4294 23.2825 33.0367 14.7922 35.4838Z" fill="#FCFCFC"/>
<path d="M0.108935 1.1008C0.0549351 6.2507 -1.73938 29.8307 11.4906 35.3368C12.7345 35.856 14.04 36.2633 15.3834 36.1506C18.5419 35.8806 23.8699 33.8257 25.6367 23.4322C25.6367 23.4322 18.3164 40.1456 12.041 26.5253C10.5717 23.3336 11.016 18.6953 11.0463 14.5942C11.07 7.37238 10.4343 0.0065918 1.02504 0.0065918C0.495461 0.0065918 0.106093 0.557013 0.0994615 1.10364" fill="white"/>
</g>
<defs>
<clipPath id="clip0_1479_34">
<rect width="180" height="36.1639" fill="white"/>
</clipPath>
</defs>
</svg>