<svg xmlns="http://www.w3.org/2000/svg" width="103" height="40" viewBox="0 0 103 40" fill="none">
<path d="M19.3686 2.80571C20.0171 2.38857 20.84 2.37428 21.4971 2.78571C23.3057 3.79428 25.1171 4.80571 26.96 5.75142C26.9657 4.72285 26.96 3.69428 26.9629 2.66571C28.7143 2.68285 30.4629 2.68 32.2143 2.66857C32.2343 4.62 32.1629 6.57714 32.2429 8.52857C33.64 9.69714 35.4686 10.2686 36.9486 11.3429C37.3057 11.6314 37.5457 12.0857 37.5314 12.5543C37.5629 14.0029 37.5371 15.4543 37.54 16.9057C36.3857 16.9029 35.2314 16.9029 34.0771 16.9057C34.0657 15.8343 34.0657 14.7657 34.0743 13.6971C29.6057 11.1029 24.9857 8.77142 20.5229 6.16571C16.1 8.63428 11.6686 11.0943 7.28 13.62C7.24857 15.56 7.32 17.5029 7.25143 19.44C7.21143 20.5457 5.91428 21.3686 4.89714 20.9229C4.27143 20.68 3.81714 20.06 3.83428 19.3829C3.80571 17.1114 3.81714 14.84 3.82285 12.5686C3.76 11.8171 4.32857 11.2429 4.94571 10.9257C9.75143 8.21428 14.5714 5.52571 19.3686 2.80571Z" fill="#FEFEFE"/>
<path d="M1.05428 28.7657C2.57143 26.2686 4.03428 23.7343 5.48571 21.1971C7.07143 23.6686 8.41714 26.28 9.97714 28.7657C9.07714 28.7771 8.17714 28.7771 7.27714 28.7686C7.26571 30.5571 7.26 32.3486 7.28857 34.1371C16.2171 34.1314 25.1457 34.14 34.0743 34.1343C34.0686 33.4686 34.0686 32.8029 34.0657 32.14C35.2257 32.1457 36.3857 32.1457 37.5457 32.14C37.5257 33.4314 37.5857 34.72 37.52 36.0086C37.4914 36.9286 36.6286 37.6943 35.7143 37.6257C25.7143 37.6314 15.7143 37.5971 5.71428 37.5829C4.77428 37.6857 3.81143 36.9486 3.83428 35.9686C3.79428 33.5714 3.83714 31.1714 3.82 28.7743C2.89714 28.7743 1.97714 28.7771 1.05428 28.7657Z" fill="#FEFEFE"/>
<path d="M69.8914 14.7858C70.8028 14.7886 71.7143 14.7858 72.6286 14.7886C72.6343 15.7201 72.6314 16.6515 72.6314 17.5829C71.7143 17.5801 70.8 17.5801 69.8857 17.5858C69.8857 16.6515 69.8857 15.7172 69.8914 14.7858Z" fill="white"/>
<path d="M11.8857 15.0458C13.7314 15.0487 15.5743 15.0487 17.42 15.043C18.4829 15.0515 19.64 15.1087 20.5343 15.7515C22.0486 16.8287 22.5343 19.0973 21.58 20.6973C21.2171 21.3887 20.5286 21.7973 19.9 22.2115C20.7029 24.0458 21.4771 25.8915 22.2 27.7544C21.1486 27.7573 20.0971 27.7458 19.0429 27.783C18.2 26.1544 17.7257 24.3715 16.9886 22.6973C16.2971 22.7001 15.6086 22.7001 14.92 22.6973C14.9314 24.3344 14.8886 25.9687 14.9543 27.603C13.9457 27.8173 12.9114 27.643 11.8914 27.7687C11.8714 23.5287 11.8857 19.2887 11.8857 15.0458ZM14.9143 17.3287C14.9229 18.3973 14.92 19.4658 14.92 20.5344C15.9257 20.5115 16.94 20.6001 17.94 20.4515C19.2857 20.043 19.38 17.8458 18 17.4287C16.9886 17.223 15.94 17.363 14.9143 17.3287Z" fill="white"/>
<path d="M44.34 15.043C45.2457 15.0487 46.1514 15.0487 47.0571 15.043C47.0371 19.2515 47.0971 23.463 47.0314 27.6687C46.1743 27.8601 45.2686 27.723 44.3943 27.7801C44.2686 23.5373 44.3743 19.2887 44.34 15.043Z" fill="white"/>
<path d="M98.9257 15.8344C99.2628 15.8344 99.6028 15.8315 99.9457 15.8258C100.797 16.4029 100.637 17.5315 99.9543 18.1715C99.9943 17.8401 99.2828 17.3858 99.6343 17.0429C99.9828 16.6029 100.423 17.6601 100.04 17.8201L100.323 17.2201C100.329 17.0401 100.34 16.6829 100.346 16.5029C99.6257 16.6972 98.3 16.0658 98.3686 17.2629C98.8829 17.3487 99.2371 17.6829 99.3 18.2115C98.9743 17.8429 98.2743 17.6829 98.2286 17.1172C98.0714 16.5715 98.6457 16.2201 98.9257 15.8344Z" fill="white"/>
<path d="M24.9714 19.2571C26.7314 17.6143 29.8829 17.8486 31.34 19.7828C32.1714 20.8343 32.3114 22.2228 32.3771 23.5143C30.3429 23.5286 28.3086 23.5028 26.2743 23.5314C26.36 24.1286 26.3057 24.8086 26.7257 25.2971C27.2114 25.9943 28.1943 26.06 28.9314 25.7886C29.4343 25.5171 29.6143 24.94 29.8771 24.4743C30.6857 24.5486 31.4943 24.6428 32.3057 24.7171C31.8143 26.2628 30.5629 27.6828 28.8743 27.8628C27.2257 28.12 25.3714 27.6228 24.3571 26.2257C22.8886 24.1714 23.1 20.9971 24.9714 19.2571ZM27.0943 20.24C26.5629 20.6114 26.4514 21.2828 26.2686 21.8571C27.4029 21.8914 28.54 21.8914 29.6743 21.8657C29.5171 21.2886 29.4571 20.6028 28.94 20.2143C28.3857 19.8714 27.64 19.8886 27.0943 20.24Z" fill="white"/>
<path d="M34.1 18.3772C34.9514 18.3772 35.8 18.3772 36.6514 18.3829C36.6429 18.8 36.6314 19.2172 36.62 19.6343C37.2771 18.3486 38.8714 17.82 40.1943 18.3515C41.6886 18.8658 42.3629 20.5143 42.4771 21.9772C42.6086 23.6458 42.5314 25.52 41.4114 26.8686C40.2657 28.26 37.7771 28.3458 36.7429 26.7715C36.7771 28.1515 36.7629 29.5343 36.7571 30.9143C35.8829 30.9115 35.0086 30.9172 34.1371 30.94C34.06 26.7515 34.1314 22.5629 34.1 18.3772ZM37.8543 20.1372C37.1743 20.3258 36.8514 21.0658 36.8 21.7143C36.7314 22.7629 36.7086 23.8258 36.84 24.8686C37.0457 25.8829 38.5629 26.3943 39.1714 25.4458C39.8771 24.3515 39.66 22.9343 39.5857 21.7C39.54 20.8315 38.8343 19.8143 37.8543 20.1372Z" fill="white"/>
<path d="M50.6886 18.983C52.6229 17.5515 55.7486 18.0372 56.9857 20.1572C57.6657 21.143 57.68 22.3715 57.6914 23.523C55.7 23.5172 53.7114 23.5201 51.7229 23.5172C51.6286 24.523 52.0029 25.7944 53.1743 25.9144C54.1657 26.1572 55 25.4258 55.1971 24.4915C56.04 24.5458 56.88 24.6315 57.7229 24.7144C57.2514 26.0458 56.3029 27.3058 54.9029 27.7258C53.2229 28.183 51.22 27.8801 50.0086 26.543C48.1229 24.4372 48.4 20.6944 50.6886 18.983ZM51.6886 21.863C52.8114 21.8887 53.9343 21.8887 55.0571 21.8772C54.9486 21.0915 54.6686 20.0601 53.7143 19.9887C52.5429 19.7258 51.76 20.8201 51.6886 21.863Z" fill="white"/>
<path d="M62.0514 19.8458C62.5057 19.2429 62.9429 18.5287 63.7086 18.2944C64.7571 18.0172 65.9971 18.1372 66.8229 18.9029C67.4857 19.5572 67.6057 20.5372 67.6086 21.4258C67.6171 23.5058 67.6 25.5887 67.6143 27.6687C66.7114 27.5601 65.5686 28.0887 64.8286 27.4858C64.6429 25.3829 65.1057 23.2629 64.7429 21.1744C64.6943 20.5629 64.0143 20.2287 63.46 20.3458C62.6571 20.4058 62.2886 21.2715 62.2371 21.9744C62.1257 23.9087 62.2886 25.8487 62.1543 27.7829C61.2686 27.7572 60.3829 27.7515 59.4971 27.7515C59.4571 24.6287 59.5086 21.5058 59.4714 18.3829C60.3314 18.3772 61.1943 18.3772 62.0543 18.3887C62.0514 18.8744 62.0486 19.3601 62.0514 19.8458Z" fill="white"/>
<path d="M69.8857 18.3772C70.8 18.3772 71.7143 18.3772 72.6314 18.3744C72.6343 21.4772 72.6314 24.5801 72.6314 27.6801C71.7143 27.6744 70.8 27.6744 69.8829 27.6772C69.8914 24.5772 69.8857 21.4772 69.8857 18.3772Z" fill="white"/>
<path d="M74.9228 18.3801C75.8114 18.3772 76.7 18.3772 77.5914 18.3801C77.6286 20.623 77.4971 22.8744 77.6514 25.1115C78.1514 26.2487 80.0428 25.603 80.1171 24.4744C80.1943 22.443 80.1171 20.4058 80.1457 18.3744C81.0628 18.3801 81.98 18.3801 82.8971 18.3772C82.8886 21.4287 82.9343 24.483 82.8828 27.5315C82.2343 28.0801 81.1486 27.583 80.3343 27.6515C80.3486 27.1715 80.3657 26.6887 80.3857 26.2058C79.5114 28.3401 75.8428 28.6544 75.0686 26.3058C74.7486 23.6858 75.02 21.0172 74.9228 18.3801Z" fill="white"/>
<path d="M87.7886 19.6429C88.7771 17.6401 92.0029 17.6601 92.9657 19.6858C93.8914 18.0315 96.2771 17.6601 97.7114 18.8544C98.5571 19.5487 98.4743 20.7315 98.4914 21.7144C98.4657 23.7344 98.5371 25.7572 98.4486 27.7744C97.56 27.7572 96.6686 27.7515 95.78 27.7629C95.7429 25.8429 95.7771 23.9258 95.7657 22.0058C95.7314 21.5287 95.78 20.9315 95.3714 20.5915C94.5857 20.0115 93.2343 20.5572 93.2657 21.6029C93.1429 23.6201 93.2486 25.6458 93.22 27.6687C92.3 27.6744 91.38 27.6744 90.4629 27.6887C90.4514 25.8887 90.4629 24.0915 90.4629 22.2915C90.4371 21.7001 90.5171 20.9887 89.9971 20.5687C89.22 20.0601 88.0057 20.5087 87.8914 21.4715C87.7657 23.5629 87.8857 25.6601 87.8343 27.7572C86.9743 27.7515 86.1171 27.7572 85.26 27.7858C85.1 24.6572 85.2486 21.5172 85.1829 18.3829C86.0543 18.3772 86.9257 18.3772 87.7971 18.3915C87.7943 18.7058 87.7914 19.3315 87.7886 19.6429Z" fill="white"/>
</svg>